<svg width="288" height="36" viewBox="0 0 288 36" fill="none" xmlns="http://www.w3.org/2000/svg">
<path d="M90.4064 1.83219C94.0709 0.0240587 98.3622 -0.385785 102.292 0.602658C106.149 1.54288 109.573 3.92961 111.959 7.08781C109.958 8.58253 107.981 10.1255 105.98 11.6443C104.582 9.64329 102.509 8.07625 100.098 7.49765C97.4461 6.82262 94.5531 7.49765 92.3833 9.16113C89.5867 11.2586 88.0197 14.8266 88.2367 18.3223C88.3813 21.5287 90.0689 24.6628 92.7208 26.4709C94.2155 27.5317 96.0237 28.0862 97.8318 28.1585C97.8318 30.5452 97.8318 32.932 97.8318 35.2946C94.3361 35.2464 90.8645 34.1374 88.0197 32.1364C84.6445 29.7738 82.1613 26.1816 81.1488 22.2038C80.1362 18.3223 80.4738 14.0792 82.1131 10.4148C83.7766 6.70208 86.7419 3.5921 90.4064 1.83219Z" fill="white"/>
<path d="M38.5734 28.1827C42.72 18.7804 46.8426 9.37815 51.0133 0C56.1002 11.5479 61.187 23.0958 66.2739 34.6437C63.6943 34.6437 61.1147 34.6437 58.5351 34.6437C57.6672 32.5222 56.7993 30.4006 55.9073 28.3032C53.1348 28.3032 50.3383 28.3032 47.5658 28.3032C44.5764 28.0862 41.5628 28.2309 38.5734 28.1827ZM48.6748 21.7698C50.266 21.7698 51.833 21.7698 53.4241 21.7698C52.6286 19.8171 51.8089 17.8643 51.0133 15.9115C50.2177 17.8643 49.4463 19.8171 48.6748 21.7698Z" fill="white"/>
<path d="M190.601 0C195.712 11.5479 200.774 23.0958 205.861 34.6437C203.33 34.6437 200.774 34.6437 198.219 34.6437C195.688 28.3514 193.18 22.0592 190.649 15.7428C189.757 17.5268 189.106 19.4072 188.31 21.2395C186.502 25.6995 184.646 30.1355 182.838 34.6196C180.331 34.6678 177.799 34.6196 175.292 34.6437C180.403 23.0958 185.514 11.5479 190.601 0Z" fill="white"/>
<path d="M8.22095 0.626934C9.90853 0.651042 11.6202 0.578719 13.3078 0.651044C16.9723 0.868019 20.4439 3.01366 22.3726 6.14775C24.3977 9.37827 24.7111 13.5731 23.1922 17.0688C21.9145 20.1306 19.2385 22.5414 16.0803 23.5299C13.2355 24.446 10.2219 23.9638 7.30483 24.0844C7.30483 27.6042 7.30483 31.0999 7.30483 34.6197C4.86989 34.6197 2.43495 34.6197 0 34.6197C0.0241084 25.5309 0 16.4179 0 7.32906C2.43495 7.32906 4.84578 7.32906 7.28072 7.32906C7.28072 10.6801 7.28072 14.0071 7.28072 17.3581C8.89598 17.3581 10.5112 17.3822 12.1265 17.334C13.6453 17.3099 15.2124 16.5626 15.9838 15.2125C16.9964 13.3803 16.9241 10.9453 15.6463 9.28184C14.7784 8.10053 13.3319 7.35317 11.8613 7.35317C10.6318 7.35317 9.40226 7.35317 8.17274 7.35317C8.22095 5.11109 8.19684 2.86901 8.22095 0.626934Z" fill="white"/>
<path d="M134.452 34.6437C134.452 23.3127 134.452 11.9818 134.452 0.650879C139.033 0.650879 143.638 0.650879 148.242 0.650879C148.266 3.0135 148.218 5.37612 148.266 7.71463C146.097 7.76285 143.927 7.71463 141.757 7.73874C141.757 9.32989 141.757 10.9451 141.757 12.5363C146.121 12.5363 150.484 12.5363 154.824 12.5363C154.824 14.8748 154.824 17.1892 154.824 19.5277C150.46 19.5277 146.097 19.5277 141.757 19.5277C141.757 22.1797 141.757 24.8316 141.757 27.4835C146.41 27.4835 151.063 27.4835 155.716 27.4835C155.716 29.8702 155.716 32.2569 155.716 34.6196C148.628 34.6437 141.54 34.6437 134.452 34.6437Z" fill="white"/>
<path d="M231.947 0.626853C234.695 0.699178 237.564 0.337552 240.216 1.22956C244.266 2.50731 247.521 5.9548 248.533 10.0773C249.208 12.7534 249.064 15.6946 247.762 18.1536C246.918 19.7448 245.616 21.0466 244.218 22.1556C246.074 23.5539 247.641 25.4344 248.34 27.7005C249.088 29.9185 248.895 32.3052 248.919 34.6196C246.484 34.6196 244.049 34.6196 241.638 34.6196C241.59 32.7633 241.855 30.7864 241.011 29.0506C240.168 27.0737 238.215 25.6272 236.045 25.4826C234.357 25.4103 232.694 25.4585 231.006 25.4585C231.006 28.5202 231.006 31.5579 231.006 34.6196C228.571 34.6196 226.136 34.6196 223.702 34.6196C223.726 25.6031 223.702 16.5866 223.702 7.57006C226.136 7.57006 228.571 7.57006 230.982 7.57006C231.006 11.3792 230.982 15.1642 230.982 18.9733C232.718 18.9492 234.454 19.0215 236.19 18.9492C239.107 18.7081 241.59 15.9839 241.445 13.0427C241.421 10.222 239.083 7.6906 236.262 7.42541C234.815 7.32897 233.345 7.4013 231.874 7.3772C231.947 5.11101 231.947 2.86893 231.947 0.626853Z" fill="white"/>
<path d="M265.24 0.650879C272.834 0.650879 280.404 0.650879 287.999 0.650879C287.999 3.0135 287.999 5.37612 287.999 7.73874C285.419 7.73874 282.839 7.73874 280.26 7.73874C280.26 13.8623 280.26 19.9858 280.26 26.0852C277.825 26.0852 275.39 26.0852 272.979 26.0852C272.979 19.9617 272.979 13.8382 272.979 7.73874C270.399 7.73874 267.82 7.73874 265.24 7.73874C265.24 5.37612 265.24 3.0135 265.24 0.650879Z" fill="white"/>
<path d="M97.9041 15.0437C102.846 15.0437 107.788 15.0196 112.731 15.0437C112.707 17.2134 112.731 19.3591 112.731 21.5288C107.788 21.5288 102.846 21.5288 97.9041 21.5288C97.9041 19.3591 97.9041 17.1893 97.9041 15.0437Z" fill="white"/>
</svg>
